<?xml version="1.0" encoding="UTF-8" standalone="no"?>
<!-- Created with Inkscape (http://www.inkscape.org/) -->

<svg
   xmlns:dc="http://purl.org/dc/elements/1.1/"
   xmlns:cc="http://creativecommons.org/ns#"
   xmlns:rdf="http://www.w3.org/1999/02/22-rdf-syntax-ns#"
   xmlns:svg="http://www.w3.org/2000/svg"
   xmlns="http://www.w3.org/2000/svg"
   xmlns:sodipodi="http://sodipodi.sourceforge.net/DTD/sodipodi-0.dtd"
   xmlns:inkscape="http://www.inkscape.org/namespaces/inkscape"
   version="1.1"
   id="svg2"
   xml:space="preserve"
   width="1207.3066"
   height="1019.6667"
   viewBox="0 0 1207.3066 1019.6667"
   sodipodi:docname="michelle-logo.svg"
   inkscape:export-filename="/Users/sander/Development/workspace/michellekindercoaching.nl/www/wp-content/themes/michelletoussaintcoaching/images/michelle-logo-70x59.png"
   inkscape:export-xdpi="5.5700002"
   inkscape:export-ydpi="5.5700002"
   inkscape:version="0.92.2 5c3e80d, 2017-08-06"><metadata
     id="metadata8"><rdf:RDF><cc:Work
         rdf:about=""><dc:format>image/svg+xml</dc:format><dc:type
           rdf:resource="http://purl.org/dc/dcmitype/StillImage" /><dc:title></dc:title></cc:Work></rdf:RDF></metadata><defs
     id="defs6" /><sodipodi:namedview
     pagecolor="#ffffff"
     bordercolor="#666666"
     borderopacity="1"
     objecttolerance="10"
     gridtolerance="10"
     guidetolerance="10"
     inkscape:pageopacity="0"
     inkscape:pageshadow="2"
     inkscape:window-width="1440"
     inkscape:window-height="851"
     id="namedview4"
     showgrid="false"
     inkscape:zoom="0.23144818"
     inkscape:cx="603.65332"
     inkscape:cy="509.83334"
     inkscape:window-x="0"
     inkscape:window-y="0"
     inkscape:window-maximized="1"
     inkscape:current-layer="g10" /><g
     id="g10"
     inkscape:groupmode="layer"
     inkscape:label="ink_ext_XXXXXX"
     transform="matrix(1.3333333,0,0,-1.3333333,0,1019.6667)"><g
       id="g12"
       transform="scale(0.1)"><path
         d="M 5308.91,0.0117188 C 4817.9,0.0117188 4328.35,36.1289 3841.49,122.852 2939.19,283.48 2082.24,569.031 1341.07,1127.66 686.238,1621.24 214.555,2247.61 17.6406,3058.65 13.0313,3077.73 9.15625,3097.28 6.79688,3116.76 3.06641,3147.83 0.898438,3179.08 0,3189.27 468.953,1525.81 1716.69,721.691 3281.25,275.852 c 6.56,9.546 13.1,19.199 19.64,28.66 -83.96,27.058 -167.81,54.468 -251.87,81.207 C 2305.33,622.84 1633.62,982.648 1085.21,1548.23 613.758,2034.41 310.434,2605.27 216.77,3283.3 97.3633,4147.6 567.5,4968.29 1346.02,5224.24 c 200.73,65.99 402.55,94.42 604,94.42 250.68,0 500.83,-43.99 748.02,-114.36 283.19,-80.66 556.35,-196.64 833.93,-297.07 32.37,-11.74 64.24,-25.11 96.38,-37.68 11.45,13.02 22.94,26.06 34.42,39.02 -36.84,32.64 -68.58,76.45 -111.32,96.22 -520.89,241.78 -1057.67,404.1 -1625.52,404.1 -117.3,0 -235.83,-6.92 -355.93,-21.49 158.71,28.4 315,41.28 469.09,41.28 559.46,0 1090.62,-169.72 1609.66,-382.55 75.27,274.48 137.51,542.67 222.73,803.28 171.26,524.03 457.48,972.86 886.05,1330.13 386.79,322.39 850.02,467.92 1310.5,467.92 850.02,0 1691.13,-495.47 2027.94,-1288.74 165.67,-390.12 251.04,-795.03 265.31,-1121.23 -82.53,289.43 -158.86,680.05 -304.57,1042.83 -315.45,785.42 -922.24,1213.47 -1759.2,1318.94 -24.35,3.11 -49.1,3.85 -73.69,3.85 -2.94,0 -5.87,-0.02 -8.81,-0.03 -11.79,-0.05 -23.6,-3.52 -21.33,-3.52 0.38,0 1.15,0.1 2.39,0.32 215.62,-66.28 456.01,-118.18 678.44,-212.53 678.32,-287.68 1056.73,-829.46 1216.5,-1529.45 200.59,-878.72 86.6,-1740.86 -188.14,-2585.95 -188.68,-580.52 -464.81,-1120.55 -806.31,-1626.71 -20.59,-30.51 -44.12,-59.05 -81.12,-79.59 86.82,188.05 174.24,375.73 260.26,564.11 292.79,641.19 525.31,1300.93 607.56,2005.59 62.98,539.98 61.48,1077.93 -74.83,1608.7 -127.54,496.73 -370.31,918.36 -799.26,1228.24 59.91,-14.84 119.79,-29.89 179.73,-44.72 8.26,10.9 16.6,21.91 24.9,32.92 -23.42,8.53 -49.27,13.14 -69.96,26.17 -338.62,212.43 -697.34,315.84 -1046.7,315.84 -595.5,0 -1164.05,-300.25 -1561.15,-872.78 -359.32,-518.07 -585,-1088.16 -619.54,-1724.97 -1.89,-35.16 -8.34,-70.09 -13.62,-113.29 -214.95,99.98 -421.67,204.46 -634.82,293.53 -460.64,192.26 -933.64,336.72 -1440.07,338.29 -1.45,0 -2.92,0.01 -4.37,0.01 -269.13,0 -577.41,-81.64 -779.78,-221.53 52.01,11.24 82.39,17.75 116.07,24.94 -2.98,-7.93 -3.35,-15.51 -6.83,-17.41 C 483.051,4642.47 168.895,3887.55 348.789,3043.93 498.027,2344.26 865.824,1768.73 1432.04,1345.14 2090.35,852.672 2834.95,524.891 3638.15,334.25 4334.68,169 5034.42,91.1992 5736.94,91.1992 c 481.27,0 963.74,36.4808 1447.8,106.3518 25.99,3.75 52.2,5.929 78.9,5.929 17.25,0 34.7,-0.91 52.43,-2.89 C 7190.13,175.32 7064.68,147.461 6938.14,125.672 6809.97,103.652 6680.99,85.1016 6551.81,69.9414 6418.73,54.2188 6285.05,42.6484 6151.4,32.6602 5870.27,11.7891 5589.34,0.0117188 5308.91,0.0117188"
         style="fill:#7ab87e;fill-opacity:1;fill-rule:nonzero;stroke:none"
         id="path14"
         inkscape:connector-curvature="0" /><path
         d="m 3090.95,4227.28 c -83.1,0 -141.65,58.58 -141.65,141.59 0,83.13 58.55,141.73 141.65,141.73 83.07,0 141.62,-58.6 141.62,-141.73 0,-83.01 -58.55,-141.59 -141.62,-141.59"
         style="fill:#7ab87e;fill-opacity:1;fill-rule:nonzero;stroke:none"
         id="path16"
         inkscape:connector-curvature="0" /><path
         d="m 7213.82,2756.14 c -83.08,0 -141.64,58.58 -141.64,141.64 0,83.07 58.56,141.65 141.64,141.65 83.09,0 141.6,-58.58 141.6,-141.65 0,-83.06 -58.51,-141.64 -141.6,-141.64"
         style="fill:#7ab87e;fill-opacity:1;fill-rule:nonzero;stroke:none"
         id="path18"
         inkscape:connector-curvature="0" /><path
         d="m 2847.61,3766.26 v -570.24 h -223.65 v 505.38 c 0,129.8 -76.87,208.27 -199.76,208.27 -143.45,-5.06 -230.5,-114.35 -230.5,-262.85 V 2584.76 L 1971.17,1996.43 V 3701.4 c 0,129.8 -76.27,208.27 -199.17,208.27 -145.15,-5.06 -232.24,-114.35 -232.24,-262.85 v -450.8 h -221.97 v 913.49 h 221.97 v -169.06 c 63.19,121.21 175.86,175.91 320.99,177.59 160.52,0 271.47,-80.2 314.16,-218.54 59.76,148.57 179.28,216.86 339.78,218.54 206.57,0 332.92,-134.91 332.92,-351.78"
         style="fill:#100f0d;fill-opacity:1;fill-rule:nonzero;stroke:none"
         id="path20"
         inkscape:connector-curvature="0" /><path
         d="m 3231.76,4109.51 v -913.49 h -221.97 v 913.49 h 221.97"
         style="fill:#100f0d;fill-opacity:1;fill-rule:nonzero;stroke:none"
         id="path22"
         inkscape:connector-curvature="0" /><path
         d="m 3810.55,3921.68 c -146.85,0 -249.3,-109.24 -249.3,-269.76 0,-163.89 102.45,-273.12 249.3,-273.12 105.84,0 191.21,35.76 245.83,107.54 l 138.31,-114.4 c -80.26,-116.11 -216.86,-184.45 -396.08,-184.45 -273.19,0 -461.04,187.82 -461.04,462.7 0,278.34 189.54,466.17 464.44,466.17 167.29,0 300.49,-61.51 382.46,-167.39 l -134.89,-128.04 c -58.07,63.24 -138.3,100.75 -239.03,100.75"
         style="fill:#100f0d;fill-opacity:1;fill-rule:nonzero;stroke:none"
         id="path24"
         inkscape:connector-curvature="0" /><path
         d="m 5196.94,3766.26 v -570.24 h -223.7 v 505.38 c 0,128.06 -76.82,206.64 -203.19,206.64 -150.21,-1.62 -240.69,-112.72 -240.69,-262.92 v -449.1 h -221.94 v 1266.87 h 221.94 v -527.56 c 64.87,124.63 179.27,181.03 329.52,182.71 210.01,0 338.06,-134.91 338.06,-351.78"
         style="fill:#100f0d;fill-opacity:1;fill-rule:nonzero;stroke:none"
         id="path26"
         inkscape:connector-curvature="0" /><path
         d="m 5500.83,3672.43 459.3,131.42 c -37.56,95.65 -107.57,138.34 -208.32,138.34 -151.93,0 -247.56,-93.97 -250.98,-269.76 z m 527.56,-179.29 129.81,-119.51 c -104.16,-124.7 -240.76,-186.14 -401.23,-186.14 -285.18,0 -479.77,186.14 -479.77,464.43 0,271.44 179.24,462.64 462.68,464.44 254.39,3.38 425.13,-153.67 437.11,-408.09 l -650.55,-184.34 c 42.72,-99.08 131.48,-158.85 245.86,-158.85 95.62,0 184.39,44.38 256.09,128.06"
         style="fill:#100f0d;fill-opacity:1;fill-rule:nonzero;stroke:none"
         id="path28"
         inkscape:connector-curvature="0" /><path
         d="m 6561.13,3388.95 c 27.32,0 56.37,10.28 90.47,27.35 l 25.62,-186.12 c -58.01,-29.04 -116.09,-44.39 -172.42,-44.39 -136.6,0 -247.58,95.61 -247.58,286.91 v 990.19 h 220.26 v -971.43 c 0,-70.04 34.14,-102.51 83.65,-102.51"
         style="fill:#100f0d;fill-opacity:1;fill-rule:nonzero;stroke:none"
         id="path30"
         inkscape:connector-curvature="0" /><path
         d="m 7018.73,3388.95 c 27.28,0 56.3,10.28 90.46,27.35 l 25.61,-186.12 c -58.07,-29.04 -116.07,-44.39 -172.44,-44.39 -136.56,0 -247.6,95.61 -247.6,286.91 v 990.19 h 220.27 v -971.43 c 0,-70.04 34.14,-102.51 83.7,-102.51"
         style="fill:#100f0d;fill-opacity:1;fill-rule:nonzero;stroke:none"
         id="path32"
         inkscape:connector-curvature="0" /><path
         d="m 7327.71,3672.43 459.3,131.42 c -37.56,95.65 -107.58,138.34 -208.32,138.34 -151.94,0 -247.56,-93.97 -250.98,-269.76 z m 527.6,-179.29 129.74,-119.51 c -104.14,-124.7 -240.72,-186.14 -401.25,-186.14 -285.13,0 -479.74,186.14 -479.74,464.43 0,271.44 179.27,462.64 462.69,464.44 254.42,3.38 425.18,-153.67 437.11,-408.09 l -650.54,-184.34 c 42.69,-99.08 131.48,-158.85 245.89,-158.85 95.61,0 184.36,44.38 256.1,128.06"
         style="fill:#100f0d;fill-opacity:1;fill-rule:nonzero;stroke:none"
         id="path34"
         inkscape:connector-curvature="0" /><path
         d="m 2192.94,2601.51 h 261.23 v -162.15 h -261.23 v -384.18 c 0,-99.07 34.14,-143.45 97.3,-143.45 34.16,0 76.87,13.71 128.07,37.62 L 2469.53,1782 c -70,-42.69 -151.99,-66.62 -225.36,-66.62 -153.68,0 -273.17,102.5 -273.17,300.49"
         style="fill:#100f0d;fill-opacity:1;fill-rule:nonzero;stroke:none"
         id="path36"
         inkscape:connector-curvature="0" /><path
         d="m 2689.79,2179.77 c 0,-163.9 105.86,-276.56 256.11,-276.56 151.96,0 257.8,112.66 257.8,276.56 0,163.88 -105.84,274.91 -257.8,274.91 -150.25,0 -256.11,-111.03 -256.11,-274.91 z m 739.27,3.47 c 0,-278.36 -196.32,-466.18 -483.16,-466.18 -285.16,0 -481.46,187.82 -481.46,466.18 0,276.56 196.3,462.64 481.46,462.64 286.84,0 483.16,-186.08 483.16,-462.64"
         style="fill:#100f0d;fill-opacity:1;fill-rule:nonzero;stroke:none"
         id="path38"
         inkscape:connector-curvature="0" /><path
         d="M 4380.07,2639.09 V 1725.6 h -223.65 v 169.06 c -63.16,-121.2 -172.43,-177.6 -317.54,-177.6 -204.92,0 -331.27,134.93 -331.27,350.09 v 571.94 h 223.69 v -507.07 c 0,-128.06 73.41,-204.9 196.33,-204.9 143.44,1.7 228.79,114.42 228.79,261.23 v 450.74 h 223.65"
         style="fill:#100f0d;fill-opacity:1;fill-rule:nonzero;stroke:none"
         id="path40"
         inkscape:connector-curvature="0" /><path
         d="m 4844.47,2475.2 c -71.68,0 -122.91,-23.95 -122.91,-80.26 0,-153.63 483.2,-73.41 483.2,-401.21 0,-186.13 -165.61,-276.67 -360.29,-276.67 -138.26,0 -281.7,44.44 -377.29,128.07 l 76.8,155.45 c 83.67,-71.76 210.04,-112.71 309.06,-112.71 76.84,0 134.88,25.55 134.88,85.38 0,168.99 -476.37,76.75 -474.65,401.17 0,187.83 160.49,274.89 344.89,274.89 119.52,0 244.14,-35.84 334.65,-97.35 l -80.26,-160.45 c -88.79,53.03 -189.53,83.69 -268.08,83.69"
         style="fill:#100f0d;fill-opacity:1;fill-rule:nonzero;stroke:none"
         id="path42"
         inkscape:connector-curvature="0" /><path
         d="m 5582.08,2475.2 c -71.73,0 -122.94,-23.95 -122.94,-80.26 0,-153.63 483.18,-73.41 483.18,-401.21 0,-186.13 -165.61,-276.67 -360.24,-276.67 -138.32,0 -281.73,44.44 -377.36,128.07 l 76.88,155.45 c 83.65,-71.76 209.99,-112.71 309.01,-112.71 76.84,0 134.91,25.55 134.91,85.38 0,168.99 -476.36,76.75 -474.65,401.17 0,187.83 160.48,274.89 344.88,274.89 119.52,0 244.13,-35.84 334.64,-97.35 l -80.24,-160.45 c -88.83,53.03 -189.53,83.69 -268.07,83.69"
         style="fill:#100f0d;fill-opacity:1;fill-rule:nonzero;stroke:none"
         id="path44"
         inkscape:connector-curvature="0" /><path
         d="m 6703.82,2147.36 v 64.86 c -13.67,146.88 -114.41,245.91 -257.81,245.91 -151.99,0 -257.83,-116.16 -259.51,-278.36 1.68,-163.9 105.82,-278.26 259.51,-278.26 143.4,0 244.14,99.07 257.81,245.85 z m 221.94,491.73 V 1725.6 h -221.94 v 145.14 c -64.9,-98.97 -169.02,-155.36 -305.62,-155.36 -261.23,0 -435.37,191.25 -435.37,469.56 0,274.86 170.68,460.94 426.79,462.69 140.04,1.68 247.62,-54.6 314.2,-155.42 v 146.88 h 221.94"
         style="fill:#100f0d;fill-opacity:1;fill-rule:nonzero;stroke:none"
         id="path46"
         inkscape:connector-curvature="0" /><path
         d="M 7337.26,2639.09 V 1725.6 h -221.97 v 913.49 h 221.97"
         style="fill:#100f0d;fill-opacity:1;fill-rule:nonzero;stroke:none"
         id="path48"
         inkscape:connector-curvature="0" /><path
         d="M 8414.57,2295.91 V 1725.6 h -223.68 v 505.5 c 0,128 -76.83,206.51 -203.12,206.51 -150.29,-1.68 -239.06,-112.71 -239.06,-262.91 v -449.1 h -221.94 v 913.49 h 221.94 v -170.75 c 64.88,121.2 179.25,177.54 327.81,179.29 209.98,0 338.05,-134.92 338.05,-351.72"
         style="fill:#100f0d;fill-opacity:1;fill-rule:nonzero;stroke:none"
         id="path50"
         inkscape:connector-curvature="0" /><path
         d="m 9054.84,1782 c -70,-42.69 -151.99,-66.62 -225.39,-66.62 -153.67,0 -273.17,102.5 -273.17,300.49 v 836.63 h 221.98 v -250.99 h 261.21 v -162.15 h -261.21 v -384.18 c 0,-99.07 34.14,-143.45 97.28,-143.45 34.16,0 76.82,13.71 128.07,37.62 L 9054.84,1782"
         style="fill:#100f0d;fill-opacity:1;fill-rule:nonzero;stroke:none"
         id="path52"
         inkscape:connector-curvature="0" /><path
         d="m 2157.62,1354.4 c -61.42,0 -108.05,-48.34 -108.05,-112.03 0,-64.27 46.63,-113.18 108.05,-113.18 32.99,0 71.09,18.21 98.96,46.64 l 60.85,-65.4 c -42.65,-44.93 -106.35,-73.93 -165.5,-73.93 -119.99,0 -209.27,87.58 -209.27,204.72 0,114.89 91.55,201.32 213.26,201.32 59.14,0 121.13,-26.15 160.94,-68.24 l -60.28,-72.22 c -26.16,31.85 -64.27,52.32 -98.96,52.32"
         style="fill:#100f0d;fill-opacity:1;fill-rule:nonzero;stroke:none"
         id="path54"
         inkscape:connector-curvature="0" /><path
         d="m 3004.95,1240.09 c 0,-64.83 50.62,-114.87 109.76,-114.87 59.71,0 107.48,50.04 107.48,114.87 0,64.84 -47.77,113.74 -107.48,113.74 -59.71,0 -109.76,-48.9 -109.76,-113.74 z m 324.16,0.57 c 0,-116.58 -92.13,-204.16 -215.54,-204.16 -123.4,0 -215.53,87.58 -215.53,204.16 0,116.01 92.13,201.88 215.53,201.88 123.41,0 215.54,-86.43 215.54,-201.88"
         style="fill:#100f0d;fill-opacity:1;fill-rule:nonzero;stroke:none"
         id="path56"
         inkscape:connector-curvature="0" /><path
         d="m 4173.58,1191.19 -54.59,142.16 -55.73,-142.16 z m 30.72,-79.62 h -172.32 l -27.86,-70.52 H 3897.2 l 171.18,398.65 h 106.91 l 167.2,-398.65 h -110.9 l -27.29,70.52"
         style="fill:#100f0d;fill-opacity:1;fill-rule:nonzero;stroke:none"
         id="path58"
         inkscape:connector-curvature="0" /><path
         d="m 5125.56,1354.4 c -61.42,0 -108.06,-48.34 -108.06,-112.03 0,-64.27 46.64,-113.18 108.06,-113.18 32.98,0 71.09,18.21 98.95,46.64 l 60.86,-65.4 c -42.66,-44.93 -106.35,-73.93 -165.5,-73.93 -119.99,0 -209.28,87.58 -209.28,204.72 0,114.89 91.55,201.32 213.26,201.32 59.14,0 121.13,-26.15 160.94,-68.24 l -60.28,-72.22 c -26.16,31.85 -64.26,52.32 -98.95,52.32"
         style="fill:#100f0d;fill-opacity:1;fill-rule:nonzero;stroke:none"
         id="path60"
         inkscape:connector-curvature="0" /><path
         d="m 6002.46,1439.7 v -162.65 h 160.93 v 162.65 h 104.07 v -398.65 h -104.07 v 152.98 h -160.93 v -152.98 h -104.09 v 398.65 h 104.09"
         style="fill:#100f0d;fill-opacity:1;fill-rule:nonzero;stroke:none"
         id="path62"
         inkscape:connector-curvature="0" /><path
         d="m 7017.53,1439.7 v -398.65 h -104.06 v 398.65 h 104.06"
         style="fill:#100f0d;fill-opacity:1;fill-rule:nonzero;stroke:none"
         id="path64"
         inkscape:connector-curvature="0" /><path
         d="m 7755.11,1439.7 180.84,-239.99 v 239.99 h 96.68 v -398.65 h -90.97 L 7760.8,1279.9 v -238.85 h -97.25 v 398.65 h 91.56"
         style="fill:#100f0d;fill-opacity:1;fill-rule:nonzero;stroke:none"
         id="path66"
         inkscape:connector-curvature="0" /><path
         d="m 8943.08,1244.64 h 89.86 v -156.96 c -42.65,-29.57 -110.33,-51.18 -166.07,-51.18 -121.7,0 -213.26,87.58 -213.26,203.59 0,116.02 93.85,202.45 220.1,202.45 59.7,0 122.83,-22.74 163.79,-59.14 l -59.17,-72.79 c -28.43,26.73 -68.8,43.79 -105.19,43.79 -64.28,0 -112.62,-49.47 -112.62,-114.31 0,-65.4 48.93,-114.87 113.75,-114.87 19.9,0 44.92,6.82 68.81,18.76 v 100.66"
         style="fill:#100f0d;fill-opacity:1;fill-rule:nonzero;stroke:none"
         id="path68"
         inkscape:connector-curvature="0" /></g></g></svg>