<svg xmlns="http://www.w3.org/2000/svg" width="1207.307" height="1019.667"><path d="M707.855 1019.665c-65.468 0-130.742-4.815-195.656-16.379-120.307-21.417-234.567-59.49-333.39-133.974C91.5 803.502 28.607 719.985 2.352 611.847c-.614-2.544-1.131-5.151-1.446-7.748-.497-4.143-.786-8.31-.906-9.668 62.527 221.794 228.892 329.01 437.5 388.455.875-1.272 1.747-2.56 2.619-3.82-11.195-3.609-22.375-7.263-33.583-10.828-99.159-31.617-188.72-79.591-261.841-155.002C81.835 748.412 41.39 672.297 28.903 581.893c-15.921-115.24 46.764-224.665 150.566-258.792 26.764-8.798 53.674-12.589 80.534-12.589 33.424 0 66.777 5.865 99.736 15.248 37.758 10.755 74.18 26.219 111.19 39.61 4.316 1.565 8.566 3.347 12.851 5.023 1.527-1.736 3.059-3.474 4.59-5.202-4.913-4.352-9.145-10.194-14.843-12.83-69.452-32.237-141.023-53.88-216.736-53.88-15.64 0-31.444.923-47.458 2.866 21.162-3.787 42-5.504 62.546-5.504 74.594 0 145.416 22.63 214.621 51.006 10.036-36.597 18.335-72.356 29.697-107.104 22.835-69.87 60.998-129.714 118.14-177.35C685.91 19.409 747.673.005 809.071.005c113.336 0 225.484 66.063 270.392 171.832 22.089 52.016 33.472 106.004 35.374 149.498-11.004-38.59-21.181-90.674-40.609-139.044-42.06-104.723-122.965-161.796-234.56-175.859-3.247-.415-6.547-.513-9.825-.513-.392 0-.783.002-1.175.004-1.572.006-3.147.47-2.844.47.05 0 .153-.014.319-.044 28.749 8.838 60.801 15.758 90.458 28.338 90.443 38.357 140.898 110.594 162.2 203.926 26.746 117.163 11.547 232.115-25.085 344.794-25.157 77.402-61.975 149.406-107.508 216.894-2.745 4.068-5.883 7.874-10.816 10.612 11.576-25.073 23.232-50.097 34.701-75.214 39.039-85.492 70.042-173.458 81.008-267.412 8.398-71.998 8.198-143.724-9.977-214.494-17.005-66.23-49.375-122.448-106.568-163.765 7.988 1.979 15.972 3.985 23.964 5.963 1.101-1.454 2.213-2.922 3.32-4.39-3.123-1.137-6.57-1.752-9.328-3.489C907.362 59.788 859.533 46 812.952 46c-79.4 0-155.207 40.033-208.153 116.37-47.91 69.077-78 145.089-82.606 229.997-.252 4.688-1.112 9.345-1.816 15.105-28.66-13.33-56.222-27.261-84.642-39.137-61.419-25.635-124.486-44.896-192.01-45.106h-.582c-35.884 0-76.988 10.884-103.971 29.536a5669.18 5669.18 0 0 1 15.476-3.325c-.397 1.057-.447 2.068-.91 2.321C64.406 400.671 22.518 501.327 46.504 613.81c19.899 93.29 68.938 170.027 144.434 226.506C278.713 905.977 377.993 949.68 485.087 975.1c92.87 22.033 186.169 32.407 279.838 32.407 64.17 0 128.499-4.864 193.04-14.18 3.466-.5 6.96-.791 10.52-.791 2.3 0 4.627.121 6.991.385-16.792 3.37-33.519 7.084-50.39 9.99a976.764 976.764 0 0 1-51.511 7.43c-17.744 2.097-35.568 3.64-53.388 4.971-37.484 2.783-74.942 4.353-112.332 4.353" fill="#7ab87e"/><path d="M412.127 456.03c-11.08 0-18.887-7.811-18.887-18.88 0-11.083 7.807-18.897 18.887-18.897 11.076 0 18.882 7.814 18.882 18.898 0 11.068-7.806 18.878-18.882 18.878M961.843 652.181c-11.078 0-18.886-7.81-18.886-18.885 0-11.076 7.808-18.887 18.886-18.887s18.88 7.811 18.88 18.887c0 11.075-7.802 18.885-18.88 18.885" fill="#7ab87e"/><path d="M379.681 517.499v76.032h-29.82v-67.384c0-17.307-10.249-27.77-26.634-27.77-19.127.675-30.734 15.247-30.734 35.047v141.608l-29.67 78.444v-227.33c0-17.306-10.17-27.769-26.556-27.769-19.354.675-30.966 15.247-30.966 35.047v60.107h-29.596V471.732h29.596v22.541c8.426-16.161 23.448-23.454 42.799-23.678 21.403 0 36.196 10.693 41.888 29.138 7.968-19.809 23.904-28.914 45.304-29.138 27.543 0 44.39 17.988 44.39 46.904M430.901 471.732v121.799h-29.596V471.732h29.596M508.073 496.776c-19.58 0-33.24 14.565-33.24 35.968 0 21.852 13.66 36.416 33.24 36.416 14.112 0 25.495-4.768 32.778-14.339l18.441 15.254c-10.701 15.481-28.915 24.593-52.81 24.593-36.426 0-61.473-25.043-61.473-61.693 0-37.112 25.272-62.156 61.926-62.156 22.305 0 40.065 8.201 50.994 22.318l-17.985 17.072c-7.743-8.432-18.44-13.433-31.87-13.433M692.925 517.499v76.032H663.1v-67.384c0-17.075-10.243-27.552-27.092-27.552-20.028.216-32.092 15.029-32.092 35.056v59.88h-29.592V424.615h29.592v70.341c8.649-16.617 23.902-24.137 43.936-24.361 28.001 0 45.074 17.988 45.074 46.904M733.444 530.01l61.24-17.523c-5.008-12.754-14.343-18.446-27.776-18.446-20.257 0-33.008 12.53-33.464 35.968zm70.341 23.905l17.308 15.934c-13.888 16.627-32.101 24.819-53.497 24.819-38.024 0-63.97-24.819-63.97-61.924 0-36.192 23.9-61.685 61.691-61.925 33.919-.451 56.684 20.489 58.282 54.412l-86.74 24.578c5.696 13.211 17.53 21.18 32.781 21.18 12.75 0 24.585-5.917 34.145-17.074M874.817 567.807c3.643 0 7.516-1.371 12.063-3.647l3.416 24.816c-7.735 3.872-15.479 5.919-22.99 5.919-18.213 0-33.01-12.748-33.01-38.255V424.615h29.368v129.524c0 9.338 4.552 13.668 11.153 13.668M935.83 567.807c3.638 0 7.507-1.371 12.062-3.647l3.415 24.816c-7.743 3.872-15.476 5.919-22.992 5.919-18.208 0-33.014-12.748-33.014-38.255V424.615h29.37v129.524c0 9.338 4.552 13.668 11.16 13.668M977.028 530.01l61.24-17.523c-5.008-12.754-14.344-18.446-27.776-18.446-20.259 0-33.008 12.53-33.464 35.968zm70.347 23.905l17.298 15.934c-13.885 16.627-32.096 24.819-53.5 24.819-38.017 0-63.965-24.819-63.965-61.924 0-36.192 23.903-61.685 61.692-61.925 33.923-.451 56.69 20.489 58.281 54.412l-86.738 24.578c5.692 13.211 17.53 21.18 32.785 21.18 12.748 0 24.581-5.917 34.147-17.074" fill="#100f0d"/><path d="M292.392 672.799h34.83v21.62h-34.83v51.224c0 13.209 4.552 19.126 12.973 19.126 4.555 0 10.25-1.828 17.076-5.016l6.83 22.314c-9.334 5.692-20.266 8.882-30.048 8.882-20.491 0-36.423-13.666-36.423-40.065" fill="#100f0d"/><path d="M358.639 729.03c0 21.854 14.114 36.875 34.148 36.875 20.261 0 34.373-15.021 34.373-36.874 0-21.851-14.112-36.655-34.373-36.655-20.034 0-34.148 14.804-34.148 36.655zm98.569-.462c0 37.115-26.176 62.157-64.421 62.157-38.022 0-64.195-25.042-64.195-62.157 0-36.875 26.173-61.685 64.195-61.685 38.245 0 64.421 24.81 64.421 61.685M584.01 667.788v121.799h-29.82v-22.542c-8.422 16.16-22.991 23.68-42.34 23.68-27.322 0-44.169-17.99-44.169-46.678v-76.259h29.826v67.61c0 17.074 9.788 27.32 26.177 27.32 19.125-.227 30.505-15.257 30.505-34.831v-60.099h29.82M645.93 689.64c-9.558 0-16.389 3.193-16.389 10.701 0 20.484 64.427 9.788 64.427 53.495 0 24.817-22.081 36.89-48.039 36.89-18.434 0-37.56-5.926-50.305-17.077l10.24-20.726c11.156 9.568 28.005 15.028 41.208 15.028 10.245 0 17.984-3.407 17.984-11.384 0-22.532-63.516-10.234-63.287-53.49 0-25.044 21.399-36.652 45.986-36.652 15.936 0 32.552 4.779 44.62 12.98L681.673 700.8c-11.838-7.071-25.27-11.159-35.744-11.159M744.277 689.64c-9.564 0-16.392 3.193-16.392 10.701 0 20.484 64.424 9.788 64.424 53.495 0 24.817-22.081 36.89-48.032 36.89-18.442 0-37.564-5.926-50.314-17.077l10.25-20.726c11.154 9.568 27.999 15.028 41.202 15.028 10.245 0 17.988-3.407 17.988-11.384 0-22.532-63.515-10.234-63.287-53.49 0-25.044 21.397-36.652 45.984-36.652 15.936 0 32.55 4.779 44.619 12.98L780.02 700.8c-11.844-7.071-25.27-11.159-35.743-11.159M893.843 733.352v-8.648c-1.823-19.584-15.255-32.788-34.375-32.788-20.265 0-34.377 15.488-34.601 37.115.224 21.853 14.109 37.101 34.601 37.101 19.12 0 32.552-13.21 34.375-32.78zm29.592-65.564v121.799h-29.592v-19.352c-8.654 13.196-22.536 20.714-40.75 20.714-34.83 0-58.049-25.5-58.049-62.608 0-36.648 22.757-61.458 56.905-61.692 18.672-.224 33.016 7.28 41.894 20.723v-19.584h29.592M978.301 667.788v121.799h-29.596V667.788h29.596M1121.943 713.545v76.042h-29.824v-67.4c0-17.067-10.244-27.535-27.083-27.535-20.039.224-31.875 15.028-31.875 35.055v59.88h-29.592V667.788h29.592v22.767c8.651-16.16 23.9-23.672 43.708-23.906 27.998 0 45.074 17.99 45.074 46.896M1207.312 782.067c-9.333 5.692-20.265 8.882-30.052 8.882-20.49 0-36.423-13.666-36.423-40.065v-111.55h29.598v33.465h34.828v21.62h-34.828v51.224c0 13.209 4.552 19.126 12.97 19.126 4.555 0 10.243-1.828 17.076-5.016l6.831 22.314M287.683 839.08c-8.19 0-14.407 6.445-14.407 14.937 0 8.57 6.217 15.091 14.407 15.091 4.398 0 9.478-2.428 13.194-6.219l8.114 8.72c-5.687 5.991-14.18 9.858-22.067 9.858-15.999 0-27.903-11.678-27.903-27.296 0-15.319 12.207-26.843 28.435-26.843 7.885 0 16.15 3.487 21.459 9.099l-8.038 9.629c-3.488-4.247-8.569-6.976-13.194-6.976M400.66 854.321c0 8.644 6.75 15.316 14.635 15.316 7.961 0 14.33-6.672 14.33-15.316 0-8.645-6.369-15.165-14.33-15.165-7.962 0-14.635 6.52-14.635 15.165zm43.221-.076c0 15.544-12.284 27.222-28.738 27.222s-28.738-11.678-28.738-27.222c0-15.468 12.284-26.917 28.738-26.917s28.738 11.524 28.738 26.917M556.477 860.841l-7.278-18.954-7.431 18.954zm4.096 10.616h-22.976l-3.714 9.403h-14.256l22.824-53.153h14.254L579 880.86h-14.787l-3.639-9.403M683.408 839.08c-8.19 0-14.408 6.445-14.408 14.937 0 8.57 6.219 15.091 14.408 15.091 4.397 0 9.479-2.428 13.193-6.219l8.115 8.72c-5.688 5.991-14.18 9.858-22.067 9.858-15.998 0-27.904-11.678-27.904-27.296 0-15.319 12.207-26.843 28.435-26.843 7.885 0 16.15 3.487 21.459 9.099l-8.038 9.629c-3.488-4.247-8.568-6.976-13.193-6.976M800.328 827.707v21.686h21.457v-21.686h13.876v53.153h-13.876v-20.397h-21.457v20.397h-13.879v-53.153h13.879M935.67 827.707v53.153h-13.874v-53.153h13.875M1034.015 827.707l24.112 31.998v-31.998h12.89v53.153h-12.129l-24.115-31.847v31.847h-12.966v-53.153h12.208M1192.41 853.715h11.982v20.928c-5.687 3.942-14.71 6.824-22.143 6.824-16.226 0-28.434-11.678-28.434-27.146 0-15.469 12.513-26.993 29.346-26.993 7.96 0 16.378 3.032 21.839 7.885l-7.89 9.706c-3.79-3.564-9.173-5.839-14.025-5.839-8.57 0-15.016 6.596-15.016 15.241 0 8.72 6.524 15.316 15.167 15.316 2.653 0 5.99-.909 9.175-2.501v-13.421" fill="#100f0d"/></svg>